<svg xmlns="http://www.w3.org/2000/svg" width="46" height="44" fill="none"><path stroke="#fff" stroke-linecap="round" stroke-linejoin="round" stroke-width="4.009" d="m25.485 4.398 4.111 8.214a2.763 2.763 0 0 0 2.083 1.495l9.198 1.324c2.273.329 3.177 3.083 1.532 4.66l-6.651 6.392a2.707 2.707 0 0 0-.797 2.42l1.57 9.022c.387 2.232-1.989 3.935-4.02 2.88L24.29 36.54a2.808 2.808 0 0 0-2.58 0l-8.22 4.263c-2.032 1.056-4.408-.647-4.019-2.879l1.568-9.023a2.707 2.707 0 0 0-.797-2.419l-6.651-6.391c-1.645-1.578-.74-4.332 1.532-4.66l9.198-1.325a2.767 2.767 0 0 0 2.085-1.495l4.11-8.214c1.016-2.03 3.952-2.03 4.969 0Z" clip-rule="evenodd"/></svg>